<?xml version="1.0" encoding="UTF-8"?>
<svg width="437px" height="424px" viewBox="0 0 437 424" version="1.1" xmlns="http://www.w3.org/2000/svg" xmlns:xlink="http://www.w3.org/1999/xlink">
    <!-- Generator: Sketch 43.2 (39069) - http://www.bohemiancoding.com/sketch -->
    <title>gitpod</title>
    <desc>Created with Sketch.</desc>
    <defs>
        <path d="M216.651334,0.0373176055 C212.794057,0.231627944 209.014745,1.18799848 205.535111,2.85032353 L53.846191,75.3288763 C45.8931402,79.1270212 40.1165763,86.3102391 38.151558,94.8453174 L0.728879094,257.650461 C-1.01697624,265.228822 0.40358557,273.185368 4.66708739,279.708307 C5.17878476,280.497591 5.72911045,281.261573 6.31609087,281.997512 L111.309112,412.540387 C116.814353,419.38305 125.161347,423.36733 133.98776,423.36561 L302.360715,423.32681 C311.183827,423.33324 319.530232,419.356381 325.039363,412.520987 L429.993584,281.958712 C435.50177,275.112619 437.565513,266.150691 435.600196,257.61166 L398.119317,94.8065173 C396.154298,86.2714391 390.377734,79.0882212 382.424684,75.2900762 L230.716364,2.85032353 C226.339508,0.759250473 221.503213,-0.208008662 216.651334,0.0373176055 Z" id="path-1"></path>
        <path d="M189.74788,126.529049 C184.988315,137.928832 187.221033,151.556875 196.503967,160.835353 C199.538859,163.879158 203.041685,166.151984 206.780707,167.680571 L206.780707,280.109701 C203.041685,281.642745 199.529946,283.933397 196.503967,286.959375 C184.248533,299.21481 184.248533,319.073071 196.503967,331.346332 C208.750489,343.59731 228.62212,343.59731 240.877554,331.346332 C253.132989,319.073071 253.132989,299.21481 240.877554,286.959375 C238.386359,284.477092 235.56538,282.502853 232.579511,281.023288 L232.579511,169.628071 L274.916467,211.960571 C270.246033,223.315788 272.523315,236.863614 281.743859,246.088614 C294.012663,258.352962 313.870924,258.352962 326.135272,246.088614 C338.390707,233.828723 338.390707,213.966005 326.135272,201.715027 C317.36038,192.926766 304.694946,190.480136 293.70962,194.268179 L248.319946,148.878505 C252.107989,137.893179 249.652446,125.236658 240.877554,116.45731 C232.156141,107.735897 219.60212,105.253614 208.656902,108.952527" id="path-3"></path>
        <path d="M104.455493,126.529049 C99.6959282,137.928832 101.928646,151.556875 111.21158,160.835353 C114.246472,163.879158 117.749298,166.151984 121.488319,167.680571 L121.488319,280.109701 C117.749298,281.642745 114.237559,283.933397 111.21158,286.959375 C98.9561456,299.21481 98.9561456,319.073071 111.21158,331.346332 C123.458102,343.59731 143.329733,343.59731 155.585167,331.346332 C167.840602,319.073071 167.840602,299.21481 155.585167,286.959375 C153.093972,284.477092 150.272993,282.502853 147.287124,281.023288 L147.287124,169.628071 L189.62408,211.960571 C184.953646,223.315788 187.230928,236.863614 196.451472,246.088614 C208.720276,258.352962 228.578537,258.352962 240.842885,246.088614 C253.098319,233.828723 253.098319,213.966005 240.842885,201.715027 C232.067993,192.926766 219.402559,190.480136 208.417233,194.268179 L163.027559,148.878505 C166.815602,137.893179 164.360059,125.236658 155.585167,116.45731 C146.863754,107.735897 134.309733,105.253614 123.364515,108.952527" id="path-5"></path>
    </defs>
    <g id="Page-1" stroke="none" stroke-width="1" fill="none" fill-rule="evenodd">
        <g id="Assets/App-Icon/iTunesArtwork" transform="translate(-38.000000, -34.000000)">
            <g id="gitpod" transform="translate(38.000000, 34.000000)">
                <mask id="mask-2" fill="white">
                    <use xlink:href="#path-1"></use>
                </mask>
                <use id="Mask" fill="#326CE5" fill-rule="nonzero" xlink:href="#path-1"></use>
                <mask id="mask-4" fill="white">
                    <use xlink:href="#path-3"></use>
                </mask>
                <use id="git" fill="#FFFFFF" xlink:href="#path-3"></use>
                <mask id="mask-6" fill="white">
                    <use xlink:href="#path-5"></use>
                </mask>
                <use id="git-copy" fill="#FFFFFE" transform="translate(176.027233, 223.914265) scale(-1, 1) translate(-176.027233, -223.914265) " xlink:href="#path-5"></use>
            </g>
        </g>
    </g>
</svg>